HIERARCHY
ROOT Hips
{
	OFFSET -0.001795 -0.223333 0.028219
	CHANNELS 6 Xposition Yposition Zposition Zrotation Yrotation Xrotation 
	JOINT LeftUpLeg
	{
		OFFSET 0.069520 -0.091406 -0.006815
		CHANNELS 3 Zrotation Yrotation Xrotation
		JOINT LeftLeg
		{
			OFFSET 0.034277 -0.375199 -0.004496
			CHANNELS 3 Zrotation Yrotation Xrotation
			JOINT LeftFoot
			{
				OFFSET -0.013596 -0.397961 -0.043693
				CHANNELS 3 Zrotation Yrotation Xrotation
				JOINT LeftToe
				{
					OFFSET 0.026358 -0.055791 0.119288
					CHANNELS 3 Zrotation Yrotation Xrotation
					End Site
					{
						OFFSET 0.000000 0.000000 0.000000
					}
				}
			}
		}
	}
	JOINT RightUpLeg
	{
		OFFSET -0.067670 -0.090522 -0.004320
		CHANNELS 3 Zrotation Yrotation Xrotation
		JOINT RightLeg
		{
			OFFSET -0.038290 -0.382569 -0.008850
			CHANNELS 3 Zrotation Yrotation Xrotation
			JOINT RightFoot
			{
				OFFSET 0.015774 -0.398415 -0.042312
				CHANNELS 3 Zrotation Yrotation Xrotation
				JOINT RightToe
				{
					OFFSET -0.025372 -0.048144 0.123348
					CHANNELS 3 Zrotation Yrotation Xrotation
					End Site
					{
						OFFSET 0.000000 0.000000 0.000000
					}
				}
			}
		}
	}
	JOINT Spine
	{
		OFFSET -0.002533 0.108963 -0.026696
		CHANNELS 3 Zrotation Yrotation Xrotation
		JOINT Spine1
		{
			OFFSET 0.005487 0.135180 0.001092
			CHANNELS 3 Zrotation Yrotation Xrotation
			JOINT Spine2
			{
				OFFSET 0.001457 0.052922 0.025425
				CHANNELS 3 Zrotation Yrotation Xrotation
				JOINT Neck
				{
					OFFSET -0.002778 0.213870 -0.042857
					CHANNELS 3 Zrotation Yrotation Xrotation
					JOINT Head
					{
						OFFSET 0.005152 0.064970 0.051349
						CHANNELS 3 Zrotation Yrotation Xrotation
						End Site
						{
							OFFSET 0.000000 0.000000 0.000000
						}
					}
				}
				JOINT LeftShoulder
				{
					OFFSET 0.078845 0.121749 -0.034090
					CHANNELS 3 Zrotation Yrotation Xrotation
					JOINT LeftArm
					{
						OFFSET 0.090977 0.030469 -0.008868
						CHANNELS 3 Zrotation Yrotation Xrotation
						JOINT LeftForeArm
						{
							OFFSET 0.259612 -0.012772 -0.027456
							CHANNELS 3 Zrotation Yrotation Xrotation
							JOINT LeftHand
							{
								OFFSET 0.249234 0.008986 -0.001171
								CHANNELS 3 Zrotation Yrotation Xrotation
								End Site
								{
									OFFSET 0.000000 0.000000 0.000000
								}
							}
						}
					}
				}
				JOINT RightShoulder
				{
					OFFSET -0.081759 0.118833 -0.038615
					CHANNELS 3 Zrotation Yrotation Xrotation
					JOINT RightArm
					{
						OFFSET -0.096012 0.032551 -0.009143
						CHANNELS 3 Zrotation Yrotation Xrotation
						JOINT RightForeArm
						{
							OFFSET -0.253742 -0.013329 -0.021401
							CHANNELS 3 Zrotation Yrotation Xrotation
							JOINT RightHand
							{
								OFFSET -0.255298 0.007772 -0.005559
								CHANNELS 3 Zrotation Yrotation Xrotation
								End Site
								{
									OFFSET 0.000000 0.000000 0.000000
								}
							}
						}
					}
				}
			}
		}
	}
}
MOTION
Frames: 16
Frame Time: 0.050000
-0.007836 0.907994 0.049132 -3.142783 -4.730071 -1.258431 10.160552 0.065473 -13.325336 -8.652189 2.175294 20.309376 7.746782 16.043430 -0.015604 0.000000 0.000000 0.000000 -5.070362 1.006761 -14.267295 6.116949 -0.663692 18.492328 -6.172980 -16.149337 6.017625 0.000000 0.000000 0.000000 -4.598348 0.261190 24.944009 5.439778 -0.932377 -22.375727 2.999285 1.519236 22.994268 -0.843634 2.593263 -42.429163 0.000000 0.000000 0.000000 -25.288172 -18.264538 9.957228 -47.821312 -50.426769 13.849989 17.428886 -45.900958 -4.609034 0.000000 0.000000 0.000000 17.003313 27.404428 12.816945 42.379712 46.467655 10.888352 -15.593796 38.858635 -3.694611 0.000000 0.000000 0.000000 
-0.007633 0.909579 0.048550 -3.374365 -4.699293 -0.333220 10.369982 0.082748 -14.599895 -8.575539 2.173431 20.658991 7.725012 16.046142 0.791520 0.000000 0.000000 0.000000 -4.816383 1.106398 -15.197365 6.058631 -0.651553 18.257856 -6.144658 -16.222153 6.810401 0.000000 0.000000 0.000000 -4.987230 0.380569 25.769111 5.472384 -0.931585 -22.346323 3.102645 1.524827 23.172473 -0.523771 2.461738 -42.264347 0.000000 0.000000 0.000000 -24.875672 -18.544647 10.076542 -47.372320 -50.675874 13.789845 18.500271 -44.712617 -4.912013 0.000000 0.000000 0.000000 16.160680 27.763204 12.867891 42.891903 48.010826 11.709464 -16.845567 39.147901 -4.112056 0.000000 0.000000 0.000000 
-0.006808 0.912627 0.047241 -3.612563 -4.642471 0.868649 10.518410 0.087914 -15.739813 -8.463133 2.102736 20.123297 7.662529 15.995392 1.917223 0.000000 0.000000 0.000000 -4.567780 1.230232 -16.370948 5.925399 -0.622102 17.801874 -6.051695 -16.250875 8.199076 0.000000 0.000000 0.000000 -5.208726 0.463930 26.402206 5.260242 -0.870957 -22.241166 3.153272 1.384977 23.296569 -0.394293 2.388167 -42.183297 0.000000 0.000000 0.000000 -23.816764 -19.010518 10.257142 -47.120038 -51.666574 14.192539 19.812219 -42.575436 -5.146745 0.000000 0.000000 0.000000 15.366029 28.375541 13.030615 43.369142 49.352998 12.465178 -18.061790 39.132320 -4.492887 0.000000 0.000000 0.000000 
-0.005259 0.915354 0.045743 -3.709706 -4.553621 2.067395 10.537526 0.075969 -16.872386 -8.471340 2.064001 19.517792 7.599672 15.943826 2.958329 0.000000 0.000000 0.000000 -4.605761 1.319009 -17.465556 5.920190 -0.626666 17.173991 -5.970617 -16.280925 9.465345 0.000000 0.000000 0.000000 -5.435937 0.554393 27.117478 5.195629 -0.820094 -22.520478 3.016851 1.373796 23.662956 -0.185013 2.280523 -41.657699 0.000000 0.000000 0.000000 -22.952648 -19.606122 10.489870 -46.094240 -52.717688 14.254085 21.246288 -40.276436 -5.369653 0.000000 0.000000 0.000000 14.603828 28.765660 13.121250 42.939765 50.836983 12.894373 -18.226472 39.011380 -4.504283 0.000000 0.000000 0.000000 
-0.003041 0.916647 0.044421 -3.683940 -4.585939 3.080837 10.444368 0.051981 -17.566238 -8.609636 2.050530 18.574027 7.638488 16.050530 3.396863 0.000000 0.000000 0.000000 -4.846192 1.380762 -18.506443 5.960488 -0.635215 16.806680 -5.898442 -16.270668 10.239814 0.000000 0.000000 0.000000 -5.588357 0.637936 27.843633 5.013515 -0.777441 -22.336504 2.961609 1.268517 23.751307 -0.424495 2.377268 -42.138591 0.000000 0.000000 0.000000 -21.720188 -19.714217 10.411500 -45.271516 -53.952277 14.508616 22.570771 -38.761363 -5.599863 0.000000 0.000000 0.000000 13.244795 29.214084 13.045393 43.342141 52.518883 13.797506 -18.057616 38.964173 -4.427373 0.000000 0.000000 0.000000 
-0.000585 0.917416 0.043453 -3.617172 -4.210007 4.002522 10.058680 -0.035760 -18.424467 -8.346460 1.916312 18.005143 7.549591 15.915029 3.588877 0.000000 0.000000 0.000000 -5.101120 1.395372 -19.157187 5.898957 -0.638485 16.086452 -6.018885 -16.547108 10.808611 0.000000 0.000000 0.000000 -5.728173 0.687087 28.561991 4.980178 -0.741777 -22.457292 2.748987 1.082005 23.823329 -0.750606 2.482234 -41.689583 0.000000 0.000000 0.000000 -20.923327 -20.067450 10.494566 -43.996812 -54.866765 14.366789 23.722728 -37.271362 -5.756264 0.000000 0.000000 0.000000 11.886906 29.553166 12.934115 43.552126 53.745533 14.438911 -17.915958 39.293927 -4.404062 0.000000 0.000000 0.000000 
0.001674 0.917599 0.042882 -3.502345 -3.809494 4.664950 9.842806 -0.097284 -19.198033 -8.435353 1.905724 17.814009 7.430760 15.717890 3.682103 0.000000 0.000000 0.000000 -5.453592 1.394630 -19.888120 5.953313 -0.669668 16.066823 -6.187744 -16.879644 11.241930 0.000000 0.000000 0.000000 -5.864161 0.729805 29.350496 5.043775 -0.742578 -22.472266 2.714482 1.077286 23.746830 -1.041450 2.632030 -41.997572 0.000000 0.000000 0.000000 -20.640173 -20.251002 10.498100 -43.176645 -55.655298 14.366725 24.368246 -36.339960 -5.824341 0.000000 0.000000 0.000000 10.807572 29.701624 12.817770 43.906068 55.141813 15.278481 -17.623942 39.371203 -4.288947 0.000000 0.000000 0.000000 
0.003456 0.917699 0.042769 -3.466538 -3.426894 5.294388 9.584352 -0.167494 -19.886407 -8.249844 1.820111 17.640115 7.329724 15.548436 3.665696 0.000000 0.000000 0.000000 -5.494308 1.401171 -20.165130 5.675034 -0.620052 15.410013 -6.349623 -17.170427 11.455296 0.000000 0.000000 0.000000 -5.893714 0.730044 29.782994 5.142481 -0.761436 -22.374731 2.405414 1.151284 23.807792 -1.334714 2.758991 -41.383794 0.000000 0.000000 0.000000 -20.088479 -20.282515 10.358353 -42.743073 -56.084310 14.348723 25.526318 -36.092909 -6.152157 0.000000 0.000000 0.000000 9.817597 29.750200 12.681813 44.767617 56.239904 16.254892 -18.249916 39.967642 -4.535062 0.000000 0.000000 0.000000 
0.004831 0.918277 0.042909 -3.332056 -2.814553 5.755578 9.346671 -0.248408 -20.529743 -8.233239 1.777014 17.636747 7.087378 15.137812 3.860001 0.000000 0.000000 0.000000 -5.769061 1.378178 -20.685607 5.669632 -0.645573 15.571397 -6.607257 -17.624006 11.948626 0.000000 0.000000 0.000000 -5.905610 0.703481 30.380530 4.997738 -0.711378 -22.398223 2.404149 1.254097 23.891837 -1.583310 2.915594 -41.651283 0.000000 0.000000 0.000000 -19.790375 -20.558430 10.352044 -42.529653 -56.494524 14.424800 25.823986 -35.932518 -6.237385 0.000000 0.000000 0.000000 8.950447 29.747957 12.563292 45.229014 57.158367 16.998635 -19.780774 40.341318 -5.067630 0.000000 0.000000 0.000000 
0.006083 0.919103 0.043152 -3.216306 -2.360556 6.106382 9.174314 -0.309467 -20.723674 -8.290977 1.739990 17.137478 6.890666 14.810121 4.039264 0.000000 0.000000 0.000000 -5.904396 1.353020 -20.818792 5.492210 -0.621496 15.259655 -6.772134 -17.905933 12.356725 0.000000 0.000000 0.000000 -5.918196 0.680349 30.667568 5.028424 -0.704136 -22.449101 2.129878 1.427121 23.979920 -1.620131 2.979935 -41.601245 0.000000 0.000000 0.000000 -19.643606 -20.429037 10.147123 -42.658393 -56.471502 14.446170 25.634382 -36.325033 -6.265010 0.000000 0.000000 0.000000 8.737317 29.535592 12.502597 45.248255 57.745508 17.342335 -20.855962 40.638204 -5.443277 0.000000 0.000000 0.000000 
0.007513 0.920724 0.043453 -3.123738 -1.982092 6.349543 8.871617 -0.385327 -20.604965 -8.105178 1.628255 16.344837 6.687937 14.485879 4.369398 0.000000 0.000000 0.000000 -5.971369 1.332112 -20.848099 5.235896 -0.576738 14.959483 -6.866845 -18.074827 13.004635 0.000000 0.000000 0.000000 -5.871970 0.641928 30.902926 4.877858 -0.668884 -22.269041 1.996234 1.690196 23.982886 -1.620683 3.028288 -41.230595 0.000000 0.000000 0.000000 -19.244241 -20.286004 9.880656 -43.725225 -56.330137 14.878856 24.955954 -37.081037 -6.200133 0.000000 0.000000 0.000000 8.264302 29.333217 12.377089 45.228650 58.371276 17.715321 -22.942127 41.089276 -6.210409 0.000000 0.000000 0.000000 
0.009229 0.922339 0.044036 -2.998733 -1.750619 6.652368 8.428564 -0.473623 -20.433819 -7.769412 1.486084 15.434890 6.549297 14.277275 4.683142 0.000000 0.000000 0.000000 -6.138429 1.310625 -20.992666 5.059175 -0.544459 14.736640 -6.898156 -18.142534 13.642553 0.000000 0.000000 0.000000 -5.913395 0.639157 30.877807 4.751331 -0.629896 -22.280862 1.825744 1.853618 24.185007 -1.511233 3.017528 -41.053177 0.000000 0.000000 0.000000 -18.876774 -20.274867 9.747525 -44.495776 -56.282195 15.201106 24.535002 -37.462261 -6.135548 0.000000 0.000000 0.000000 7.813268 29.102211 12.217348 45.435877 58.707842 18.028609 -24.185730 41.431569 -6.677376 0.000000 0.000000 0.000000 
0.011202 0.923425 0.044874 -2.785964 -1.389565 6.818244 7.935770 -0.567550 -20.073099 -7.555770 1.373411 14.445501 6.367323 13.974336 4.797088 0.000000 0.000000 0.000000 -6.371862 1.258594 -20.892764 4.811920 -0.500606 14.433886 -7.004106 -18.304558 14.064844 0.000000 0.000000 0.000000 -5.846827 0.584272 30.657033 4.570253 -0.592452 -22.093813 1.734248 1.855737 24.124665 -1.681257 3.102364 -40.801954 0.000000 0.000000 0.000000 -18.723790 -19.796764 9.408850 -46.149538 -56.177562 15.952569 23.453077 -38.627417 -5.961430 0.000000 0.000000 0.000000 7.705131 28.727509 12.064581 45.715662 58.307834 18.006262 -24.700062 42.304010 -7.000535 0.000000 0.000000 0.000000 
0.013112 0.923849 0.045684 -2.685504 -1.196330 6.881136 7.421156 -0.647538 -19.615407 -7.092697 1.220569 13.571682 6.289757 13.821602 4.643552 0.000000 0.000000 0.000000 -6.598885 1.210978 -20.728217 4.787595 -0.502362 14.167574 -7.057879 -18.381498 14.277850 0.000000 0.000000 0.000000 -5.830269 0.560241 30.496963 4.600715 -0.597822 -22.069617 1.647553 2.280895 24.328394 -1.883923 3.250539 -40.774290 0.000000 0.000000 0.000000 -18.909997 -19.574234 9.168496 -47.795179 -55.636837 16.429020 22.375450 -40.014645 -5.818176 0.000000 0.000000 0.000000 7.673763 28.211883 11.913677 46.507696 57.925254 18.288972 -25.031502 43.097069 -7.211537 0.000000 0.000000 0.000000 
0.014642 0.924386 0.046116 -2.456561 -0.882092 6.899840 7.000353 -0.713843 -19.167119 -6.986663 1.152307 12.692191 6.125299 13.532523 4.658014 0.000000 0.000000 0.000000 -6.965577 1.141266 -20.656239 4.808227 -0.519453 14.141577 -7.173578 -18.549194 14.546441 0.000000 0.000000 0.000000 -5.801881 0.525036 30.463523 4.447980 -0.553558 -22.045568 1.681588 2.444441 24.330795 -2.029740 3.347999 -40.740087 0.000000 0.000000 0.000000 -19.169725 -19.579467 9.110561 -48.920130 -55.177414 16.718590 21.522610 -40.946674 -5.663593 0.000000 0.000000 0.000000 7.621116 27.896202 11.808955 46.515111 57.383247 18.055058 -24.634460 43.684169 -7.151387 0.000000 0.000000 0.000000 
0.015657 0.924484 0.046104 -2.359748 -0.490539 7.014556 6.771154 -0.767711 -19.254945 -6.885044 1.107875 12.508105 5.961351 13.244595 4.625797 0.000000 0.000000 0.000000 -7.176490 1.096960 -20.696041 4.857781 -0.545315 14.106480 -7.349067 -18.806762 14.744721 0.000000 0.000000 0.000000 -5.607590 0.432887 30.581817 4.260978 -0.502701 -21.997869 1.678061 2.463529 24.210744 -2.517357 3.566335 -40.866777 0.000000 0.000000 0.000000 -19.473121 -19.461941 9.016686 -49.819054 -54.689602 16.894860 20.296241 -42.116348 -5.379741 0.000000 0.000000 0.000000 7.466193 27.675084 11.711103 47.033255 56.974156 18.166307 -24.449229 44.082222 -7.136317 0.000000 0.000000 0.000000 
